<?xml version="1.0" encoding="UTF-8" standalone="no"?>
<!-- Created with Inkscape (http://www.inkscape.org/) -->

<svg
   xmlns:dc="http://purl.org/dc/elements/1.1/"
   xmlns:cc="http://creativecommons.org/ns#"
   xmlns:rdf="http://www.w3.org/1999/02/22-rdf-syntax-ns#"
   xmlns:svg="http://www.w3.org/2000/svg"
   xmlns="http://www.w3.org/2000/svg"
   xmlns:xlink="http://www.w3.org/1999/xlink"
   xmlns:sodipodi="http://sodipodi.sourceforge.net/DTD/sodipodi-0.dtd"
   xmlns:inkscape="http://www.inkscape.org/namespaces/inkscape"
   width="744.09448819"
   height="1052.3622047"
   id="svg2"
   version="1.1"
   inkscape:version="0.48.2 r9819"
   sodipodi:docname="yesod-logo.svg"
   inkscape:export-filename="/Users/pachopepe/Documents/Proyectos/Yesod/yesod1.png"
   inkscape:export-xdpi="90"
   inkscape:export-ydpi="90">
  <defs
     id="defs4">
    <inkscape:perspective
       sodipodi:type="inkscape:persp3d"
       inkscape:vp_x="0 : 526.18109 : 1"
       inkscape:vp_y="0 : 1000 : 0"
       inkscape:vp_z="744.09448 : 526.18109 : 1"
       inkscape:persp3d-origin="372.04724 : 350.78739 : 1"
       id="perspective80" />
    <linearGradient
       id="linearGradient4214">
      <stop
         id="stop4216"
         offset="0"
         style="stop-color:#000048;stop-opacity:1" />
      <stop
         id="stop4218"
         offset="1"
         style="stop-color:#013397;stop-opacity:0;" />
    </linearGradient>
    <linearGradient
       inkscape:collect="always"
       id="linearGradient4206">
      <stop
         style="stop-color:#b4ecfc;stop-opacity:1;"
         offset="0"
         id="stop4208" />
      <stop
         style="stop-color:#b4ecfc;stop-opacity:0;"
         offset="1"
         id="stop4210" />
    </linearGradient>
    <linearGradient
       id="linearGradient4170">
      <stop
         id="stop4172"
         offset="0"
         style="stop-color:#ffffff;stop-opacity:1;" />
      <stop
         id="stop4174"
         offset="1"
         style="stop-color:#e8e8e8;stop-opacity:0.78431374;" />
    </linearGradient>
    <linearGradient
       id="linearGradient4051">
      <stop
         style="stop-color:#0136ff;stop-opacity:1;"
         offset="0"
         id="stop4053" />
      <stop
         style="stop-color:#0197fd;stop-opacity:0;"
         offset="1"
         id="stop4055" />
    </linearGradient>
    <linearGradient
       id="linearGradient3952">
      <stop
         style="stop-color:#005789;stop-opacity:1;"
         offset="0"
         id="stop3954" />
      <stop
         style="stop-color:#013397;stop-opacity:0;"
         offset="1"
         id="stop3956" />
    </linearGradient>
    <radialGradient
       inkscape:collect="always"
       xlink:href="#linearGradient4051"
       id="radialGradient4226"
       gradientUnits="userSpaceOnUse"
       gradientTransform="matrix(-0.97741606,-0.94337972,0.99598455,-1.0319044,1002.8447,223.69049)"
       cx="462.20425"
       cy="-102.70049"
       fx="462.20425"
       fy="-102.70049"
       r="84.12326" />
    <linearGradient
       inkscape:collect="always"
       xlink:href="#linearGradient4214"
       id="linearGradient4228"
       gradientUnits="userSpaceOnUse"
       x1="526.95343"
       y1="-38.03323"
       x2="374.27557"
       y2="-176.13675" />
    <radialGradient
       inkscape:collect="always"
       xlink:href="#linearGradient4206"
       id="radialGradient4230"
       gradientUnits="userSpaceOnUse"
       gradientTransform="matrix(-1.1672213,-0.73107649,0.714471,-0.96852444,-179.50007,-324.87862)"
       cx="-115.21713"
       cy="-122.19854"
       fx="-115.21713"
       fy="-122.19854"
       r="58.078128" />
    <radialGradient
       inkscape:collect="always"
       xlink:href="#linearGradient4170"
       id="radialGradient4232"
       gradientUnits="userSpaceOnUse"
       gradientTransform="matrix(-1.0487199,-1.0227448,1.0561245,-1.0829523,84.621487,-160.41808)"
       cx="70.364853"
       cy="-112.08578"
       fx="70.364853"
       fy="-112.08578"
       r="78.977953" />
    <radialGradient
       inkscape:collect="always"
       xlink:href="#linearGradient4051"
       id="radialGradient4244"
       gradientUnits="userSpaceOnUse"
       gradientTransform="matrix(-0.97741606,-0.94337972,0.99598455,-1.0319044,1002.8447,223.69049)"
       cx="462.20425"
       cy="-102.70049"
       fx="462.20425"
       fy="-102.70049"
       r="84.12326" />
    <linearGradient
       inkscape:collect="always"
       xlink:href="#linearGradient4214"
       id="linearGradient4246"
       gradientUnits="userSpaceOnUse"
       x1="526.95343"
       y1="-38.03323"
       x2="374.27557"
       y2="-176.13675" />
    <radialGradient
       inkscape:collect="always"
       xlink:href="#linearGradient4206"
       id="radialGradient4248"
       gradientUnits="userSpaceOnUse"
       gradientTransform="matrix(-1.1672213,-0.73107649,0.714471,-0.96852444,-179.50007,-324.87862)"
       cx="-115.21713"
       cy="-122.19854"
       fx="-115.21713"
       fy="-122.19854"
       r="58.078128" />
    <radialGradient
       inkscape:collect="always"
       xlink:href="#linearGradient4170"
       id="radialGradient4250"
       gradientUnits="userSpaceOnUse"
       gradientTransform="matrix(-1.0487199,-1.0227448,1.0561245,-1.0829523,84.621487,-160.41808)"
       cx="70.364853"
       cy="-112.08578"
       fx="70.364853"
       fy="-112.08578"
       r="78.977953" />
    <radialGradient
       inkscape:collect="always"
       xlink:href="#linearGradient4051"
       id="radialGradient4262"
       gradientUnits="userSpaceOnUse"
       gradientTransform="matrix(-0.97741606,-0.94337972,0.99598455,-1.0319044,1002.8447,223.69049)"
       cx="462.20425"
       cy="-102.70049"
       fx="462.20425"
       fy="-102.70049"
       r="84.12326" />
    <linearGradient
       inkscape:collect="always"
       xlink:href="#linearGradient4214"
       id="linearGradient4264"
       gradientUnits="userSpaceOnUse"
       x1="526.95343"
       y1="-38.03323"
       x2="374.27557"
       y2="-176.13675" />
    <radialGradient
       inkscape:collect="always"
       xlink:href="#linearGradient4206"
       id="radialGradient4266"
       gradientUnits="userSpaceOnUse"
       gradientTransform="matrix(-1.1672213,-0.73107649,0.714471,-0.96852444,-179.50007,-324.87862)"
       cx="-115.21713"
       cy="-122.19854"
       fx="-115.21713"
       fy="-122.19854"
       r="58.078128" />
    <radialGradient
       inkscape:collect="always"
       xlink:href="#linearGradient4170"
       id="radialGradient4268"
       gradientUnits="userSpaceOnUse"
       gradientTransform="matrix(-1.0487199,-1.0227448,1.0561245,-1.0829523,84.621487,-160.41808)"
       cx="70.364853"
       cy="-112.08578"
       fx="70.364853"
       fy="-112.08578"
       r="78.977953" />
    <radialGradient
       inkscape:collect="always"
       xlink:href="#linearGradient4051"
       id="radialGradient4280"
       gradientUnits="userSpaceOnUse"
       gradientTransform="matrix(-0.97741606,-0.94337972,0.99598455,-1.0319044,1002.8447,223.69049)"
       cx="462.20425"
       cy="-102.70049"
       fx="462.20425"
       fy="-102.70049"
       r="84.12326" />
    <linearGradient
       inkscape:collect="always"
       xlink:href="#linearGradient4214"
       id="linearGradient4282"
       gradientUnits="userSpaceOnUse"
       x1="526.95343"
       y1="-38.03323"
       x2="374.27557"
       y2="-176.13675" />
    <radialGradient
       inkscape:collect="always"
       xlink:href="#linearGradient4206"
       id="radialGradient4284"
       gradientUnits="userSpaceOnUse"
       gradientTransform="matrix(-1.1672213,-0.73107649,0.714471,-0.96852444,-179.50007,-324.87862)"
       cx="-115.21713"
       cy="-122.19854"
       fx="-115.21713"
       fy="-122.19854"
       r="58.078128" />
    <radialGradient
       inkscape:collect="always"
       xlink:href="#linearGradient4170"
       id="radialGradient4286"
       gradientUnits="userSpaceOnUse"
       gradientTransform="matrix(-1.0487199,-1.0227448,1.0561245,-1.0829523,84.621487,-160.41808)"
       cx="70.364853"
       cy="-112.08578"
       fx="70.364853"
       fy="-112.08578"
       r="78.977953" />
    <radialGradient
       inkscape:collect="always"
       xlink:href="#linearGradient4051"
       id="radialGradient4298"
       gradientUnits="userSpaceOnUse"
       gradientTransform="matrix(-0.97741606,-0.94337972,0.99598455,-1.0319044,1002.8447,223.69049)"
       cx="462.20425"
       cy="-102.70049"
       fx="462.20425"
       fy="-102.70049"
       r="84.12326" />
    <linearGradient
       inkscape:collect="always"
       xlink:href="#linearGradient4214"
       id="linearGradient4300"
       gradientUnits="userSpaceOnUse"
       x1="526.95343"
       y1="-38.03323"
       x2="374.27557"
       y2="-176.13675" />
    <radialGradient
       inkscape:collect="always"
       xlink:href="#linearGradient4206"
       id="radialGradient4302"
       gradientUnits="userSpaceOnUse"
       gradientTransform="matrix(-1.1672213,-0.73107649,0.714471,-0.96852444,-179.50007,-324.87862)"
       cx="-115.21713"
       cy="-122.19854"
       fx="-115.21713"
       fy="-122.19854"
       r="58.078128" />
    <radialGradient
       inkscape:collect="always"
       xlink:href="#linearGradient4170"
       id="radialGradient4304"
       gradientUnits="userSpaceOnUse"
       gradientTransform="matrix(-1.0487199,-1.0227448,1.0561245,-1.0829523,84.621487,-160.41808)"
       cx="70.364853"
       cy="-112.08578"
       fx="70.364853"
       fy="-112.08578"
       r="78.977953" />
    <radialGradient
       inkscape:collect="always"
       xlink:href="#linearGradient4051"
       id="radialGradient4316"
       gradientUnits="userSpaceOnUse"
       gradientTransform="matrix(-0.97741606,-0.94337972,0.99598455,-1.0319044,1002.8447,223.69049)"
       cx="462.20425"
       cy="-102.70049"
       fx="462.20425"
       fy="-102.70049"
       r="84.12326" />
    <linearGradient
       inkscape:collect="always"
       xlink:href="#linearGradient4214"
       id="linearGradient4318"
       gradientUnits="userSpaceOnUse"
       x1="526.95343"
       y1="-38.03323"
       x2="374.27557"
       y2="-176.13675" />
    <radialGradient
       inkscape:collect="always"
       xlink:href="#linearGradient4206"
       id="radialGradient4320"
       gradientUnits="userSpaceOnUse"
       gradientTransform="matrix(-1.1672213,-0.73107649,0.714471,-0.96852444,-179.50007,-324.87862)"
       cx="-115.21713"
       cy="-122.19854"
       fx="-115.21713"
       fy="-122.19854"
       r="58.078128" />
    <radialGradient
       inkscape:collect="always"
       xlink:href="#linearGradient4170"
       id="radialGradient4322"
       gradientUnits="userSpaceOnUse"
       gradientTransform="matrix(-1.0487199,-1.0227448,1.0561245,-1.0829523,84.621487,-160.41808)"
       cx="70.364853"
       cy="-112.08578"
       fx="70.364853"
       fy="-112.08578"
       r="78.977953" />
    <radialGradient
       inkscape:collect="always"
       xlink:href="#linearGradient4051"
       id="radialGradient4358"
       gradientUnits="userSpaceOnUse"
       gradientTransform="matrix(-0.97741606,-0.94337972,0.99598455,-1.0319044,1002.8447,223.69049)"
       cx="462.20425"
       cy="-102.70049"
       fx="462.20425"
       fy="-102.70049"
       r="84.12326" />
    <linearGradient
       inkscape:collect="always"
       xlink:href="#linearGradient4214"
       id="linearGradient4360"
       gradientUnits="userSpaceOnUse"
       x1="526.95343"
       y1="-38.03323"
       x2="374.27557"
       y2="-176.13675" />
    <radialGradient
       inkscape:collect="always"
       xlink:href="#linearGradient4206"
       id="radialGradient4362"
       gradientUnits="userSpaceOnUse"
       gradientTransform="matrix(-1.1672213,-0.73107649,0.714471,-0.96852444,-179.50007,-324.87862)"
       cx="-115.21713"
       cy="-122.19854"
       fx="-115.21713"
       fy="-122.19854"
       r="58.078128" />
    <radialGradient
       inkscape:collect="always"
       xlink:href="#linearGradient4170"
       id="radialGradient4364"
       gradientUnits="userSpaceOnUse"
       gradientTransform="matrix(-1.0487199,-1.0227448,1.0561245,-1.0829523,84.621487,-160.41808)"
       cx="70.364853"
       cy="-112.08578"
       fx="70.364853"
       fy="-112.08578"
       r="78.977953" />
    <radialGradient
       inkscape:collect="always"
       xlink:href="#linearGradient4051"
       id="radialGradient4430"
       gradientUnits="userSpaceOnUse"
       gradientTransform="matrix(-0.97741606,-0.94337972,0.99598455,-1.0319044,1002.8447,223.69049)"
       cx="462.20425"
       cy="-102.70049"
       fx="462.20425"
       fy="-102.70049"
       r="84.12326" />
    <linearGradient
       inkscape:collect="always"
       xlink:href="#linearGradient4214"
       id="linearGradient4432"
       gradientUnits="userSpaceOnUse"
       x1="526.95343"
       y1="-38.03323"
       x2="374.27557"
       y2="-176.13675" />
    <radialGradient
       inkscape:collect="always"
       xlink:href="#linearGradient4206"
       id="radialGradient4434"
       gradientUnits="userSpaceOnUse"
       gradientTransform="matrix(-1.1672213,-0.73107649,0.714471,-0.96852444,-179.50007,-324.87862)"
       cx="-115.21713"
       cy="-122.19854"
       fx="-115.21713"
       fy="-122.19854"
       r="58.078128" />
    <radialGradient
       inkscape:collect="always"
       xlink:href="#linearGradient4170"
       id="radialGradient4436"
       gradientUnits="userSpaceOnUse"
       gradientTransform="matrix(-1.0487199,-1.0227448,1.0561245,-1.0829523,84.621487,-160.41808)"
       cx="70.364853"
       cy="-112.08578"
       fx="70.364853"
       fy="-112.08578"
       r="78.977953" />
    <radialGradient
       inkscape:collect="always"
       xlink:href="#linearGradient4051"
       id="radialGradient4460"
       gradientUnits="userSpaceOnUse"
       gradientTransform="matrix(-0.97741606,-0.94337972,0.99598455,-1.0319044,1002.8447,223.69049)"
       cx="462.20425"
       cy="-102.70049"
       fx="462.20425"
       fy="-102.70049"
       r="84.12326" />
    <linearGradient
       inkscape:collect="always"
       xlink:href="#linearGradient4214"
       id="linearGradient4462"
       gradientUnits="userSpaceOnUse"
       x1="526.95343"
       y1="-38.03323"
       x2="374.27557"
       y2="-176.13675" />
    <radialGradient
       inkscape:collect="always"
       xlink:href="#linearGradient4206"
       id="radialGradient4464"
       gradientUnits="userSpaceOnUse"
       gradientTransform="matrix(-1.1672213,-0.73107649,0.714471,-0.96852444,-179.50007,-324.87862)"
       cx="-115.21713"
       cy="-122.19854"
       fx="-115.21713"
       fy="-122.19854"
       r="58.078128" />
    <radialGradient
       inkscape:collect="always"
       xlink:href="#linearGradient4170"
       id="radialGradient4466"
       gradientUnits="userSpaceOnUse"
       gradientTransform="matrix(-1.0487199,-1.0227448,1.0561245,-1.0829523,84.621487,-160.41808)"
       cx="70.364853"
       cy="-112.08578"
       fx="70.364853"
       fy="-112.08578"
       r="78.977953" />
  </defs>
  <sodipodi:namedview
     id="base"
     pagecolor="#ffffff"
     bordercolor="#666666"
     borderopacity="1.0"
     inkscape:pageopacity="0.0"
     inkscape:pageshadow="2"
     inkscape:zoom="1.5916021"
     inkscape:cx="271.4326"
     inkscape:cy="990.60092"
     inkscape:document-units="px"
     inkscape:current-layer="layer1"
     showgrid="false"
     showguides="true"
     inkscape:guide-bbox="true"
     inkscape:window-width="1280"
     inkscape:window-height="776"
     inkscape:window-x="0"
     inkscape:window-y="24"
     inkscape:window-maximized="0"
     inkscape:snap-nodes="false">
    <sodipodi:guide
       orientation="0,1"
       position="116.8856,912.44202"
       id="guide3058" />
    <sodipodi:guide
       orientation="0,1"
       position="174.48445,897.82451"
       id="guide3072" />
    <sodipodi:guide
       orientation="1,0"
       position="50.413898,791.33557"
       id="guide3120" />
    <sodipodi:guide
       orientation="0,1"
       position="191.89806,765.31549"
       id="guide3129" />
    <sodipodi:guide
       orientation="0,1"
       position="162.62548,744.17418"
       id="guide3133" />
    <sodipodi:guide
       orientation="0,1"
       position="160.02347,734.0914"
       id="guide3135" />
    <sodipodi:guide
       orientation="0,1"
       position="190.86399,765.31549"
       id="guide3159" />
    <sodipodi:guide
       orientation="1,0"
       position="355.82903,860.2955"
       id="guide3202" />
    <sodipodi:guide
       orientation="0,1"
       position="485.67415,1117.1134"
       id="guide3164" />
  </sodipodi:namedview>
  <metadata
     id="metadata7">
    <rdf:RDF>
      <cc:Work
         rdf:about="">
        <dc:format>image/svg+xml</dc:format>
        <dc:type
           rdf:resource="http://purl.org/dc/dcmitype/StillImage" />
        <dc:title></dc:title>
      </cc:Work>
    </rdf:RDF>
  </metadata>
  <g
     inkscape:label="Layer 1"
     inkscape:groupmode="layer"
     id="layer1">
    <path
       style="fill:#666666;fill-opacity:1;stroke:none"
       d="m 367.4879,48.467724 -7.48202,11.829697 17.76981,24.746308 -33.39108,0 -7.96229,12.61329 42.64252,0 9.35312,-12.921802 -18.65511,-24.437796 32.88554,0 7.45675,-11.829697 -42.61724,0 z"
       id="path4396"
       inkscape:connector-curvature="0"
       sodipodi:nodetypes="ccccccccccc"
       inkscape:export-filename="/users/pachopepe/Documents/Proyectos/Yesod/yesod1.png"
       inkscape:export-xdpi="90"
       inkscape:export-ydpi="90" />
    <path
       style="fill:#666666;fill-opacity:1;stroke:none"
       d="m 321.1882,48.366615 -0.0757,0.101123 -7.45677,11.829695 -3.84212,6.066512 -7.98758,12.66384 -3.81684,6.041235 -8.0634,12.739675 7.70953,0 0.10117,-0.151663 34.93298,0 7.93702,-12.588012 -34.93298,0 3.84211,-6.041235 34.90771,0 7.98759,-12.66384 -34.90773,0 3.84214,-6.066512 34.90771,0 7.45675,-11.829695 -34.90772,0 0.0759,-0.101123 -7.70953,0 z"
       id="path4398"
       inkscape:connector-curvature="0"
       inkscape:export-filename="/users/pachopepe/Documents/Proyectos/Yesod/yesod1.png"
       inkscape:export-xdpi="90"
       inkscape:export-ydpi="90" />
    <path
       sodipodi:nodetypes="ccccccc"
       inkscape:connector-curvature="0"
       id="path4400"
       d="m 226.11436,27.346134 21.41883,0 27.53849,41.61372 -28.76243,42.225676 -22.03079,0 29.37439,-42.225676 z"
       style="fill:#666666;stroke:#666666;stroke-width:1px;stroke-linecap:butt;stroke-linejoin:miter;stroke-opacity:1"
       inkscape:export-filename="/users/pachopepe/Documents/Proyectos/Yesod/yesod1.png"
       inkscape:export-xdpi="90"
       inkscape:export-ydpi="90" />
    <path
       sodipodi:nodetypes="ccccccccc"
       inkscape:connector-curvature="0"
       id="path4402"
       d="m 329.42918,27.108984 -54.35751,84.076556 -22.64276,-1e-5 29.3744,-42.225676 -26.2892,-41.85087 20.80686,0 15.88577,25.93974 18.35899,-26.31456 z"
       style="fill:#666666;fill-opacity:0.94017394;stroke:none"
       inkscape:export-filename="/users/pachopepe/Documents/Proyectos/Yesod/yesod1.png"
       inkscape:export-xdpi="90"
       inkscape:export-ydpi="90" />
    <path
       style="fill:#666666;fill-opacity:1;stroke:none"
       d="m 422.18342,49.237984 -8.42069,3.549866 -25.00159,39.173785 5.9317,5.704985 27.40416,0.253549 9.05458,-6.719263 23.25348,-36.38479 -2.79936,-5.578132 z m -3.40584,11.271259 22.74941,0 -16.55652,25.150742 -22.7494,0 z"
       id="path4404"
       inkscape:connector-curvature="0"
       inkscape:export-filename="/users/pachopepe/Documents/Proyectos/Yesod/yesod1.png"
       inkscape:export-xdpi="90"
       inkscape:export-ydpi="90"
       sodipodi:nodetypes="cccccccccccccc" />
    <path
       style="fill:#666666;fill-opacity:1;stroke:none"
       d="m 503.12736,35.535438 -7.33039,12.941891 -25.75652,0 -11.50553,6.494126 -23.27703,36.861328 5.58576,6.014233 23.1547,-0.180396 10.26252,0 39.12899,-62.131182 z m -38.29487,24.973805 22.74943,0 -16.5818,25.150742 -22.74943,0 z"
       id="path4406"
       inkscape:connector-curvature="0"
       sodipodi:nodetypes="ccccccccccccccc"
       inkscape:export-filename="/users/pachopepe/Documents/Proyectos/Yesod/yesod1.png"
       inkscape:export-xdpi="90"
       inkscape:export-ydpi="90" />
    <path
       inkscape:export-ydpi="90"
       inkscape:export-xdpi="90"
       inkscape:export-filename="/users/pachopepe/Documents/Proyectos/Yesod/yesod1.png"
       sodipodi:nodetypes="cccccccccccccccc"
       inkscape:connector-curvature="0"
       id="path3468"
       d="m 360.0514,160.90568 -9.11189,4.10922 c -3.11941,5.29483 -12.5026,19.04437 -16.00385,24.51921 l 33.48843,0 -5.08781,7.99875 -33.43781,0 -7.97344,12.63094 36.58454,0 10.45965,-6.79164 13.37675,-21.30523 -16.46577,0 -16.46579,0 5.89781,-9.315 32.93156,0 7.46719,-11.84625 z"
       style="fill:#666666;fill-opacity:1;stroke:none" />
    <path
       inkscape:export-ydpi="90"
       inkscape:export-xdpi="90"
       inkscape:export-filename="/users/pachopepe/Documents/Proyectos/Yesod/yesod1.png"
       inkscape:connector-curvature="0"
       id="path3470"
       d="m 305.14284,160.80443 -0.0759,0.10125 -7.46718,11.84625 -3.8475,6.075 -7.99875,12.68155 -3.82219,6.0497 -8.07469,12.7575 7.72031,0 0.10125,-0.15188 34.98188,0 7.94812,-12.60562 -34.98187,0 3.8475,-6.0497 34.95656,0 7.99875,-12.68155 -34.95656,0 3.8475,-6.075 34.95656,0 7.46719,-11.84625 -34.95656,0 0.0759,-0.10125 -7.72032,0 z"
       style="fill:#666666;fill-opacity:1;stroke:none" />
    <path
       inkscape:export-ydpi="90"
       inkscape:export-xdpi="90"
       inkscape:export-filename="/users/pachopepe/Documents/Proyectos/Yesod/yesod1.png"
       style="fill:#666666;stroke:#666666;stroke-width:1px;stroke-linecap:butt;stroke-linejoin:miter;stroke-opacity:1"
       d="m 210.8099,140.43793 21.41883,0 27.53849,41.61372 -28.76243,42.22568 -22.03079,0 29.37439,-42.22568 z"
       id="path3472"
       inkscape:connector-curvature="0"
       sodipodi:nodetypes="ccccccc" />
    <path
       inkscape:export-ydpi="90"
       inkscape:export-xdpi="90"
       inkscape:export-filename="/users/pachopepe/Documents/Proyectos/Yesod/yesod1.png"
       style="fill:#aaaaaa;stroke:none"
       d="m 314.12472,140.20078 -54.35751,84.07656 -22.64276,-1e-5 29.3744,-42.22568 -26.2892,-41.85087 20.80686,0 15.88577,25.93974 18.35899,-26.31456 z"
       id="path3474"
       inkscape:connector-curvature="0"
       sodipodi:nodetypes="ccccccccc" />
    <path
       sodipodi:nodetypes="cccccccccccccc"
       inkscape:export-ydpi="90"
       inkscape:export-xdpi="90"
       inkscape:export-filename="/users/pachopepe/Documents/Proyectos/Yesod/yesod1.png"
       inkscape:connector-curvature="0"
       id="path3476"
       d="m 406.2794,161.67701 -8.4325,3.55483 -25.03657,39.2286 5.94001,5.71297 27.44249,0.2539 9.06726,-6.72866 23.28602,-36.4357 -2.80327,-5.58594 z m -3.41063,11.28703 22.78125,0 -16.57969,25.18593 -22.78125,0 z"
       style="fill:#666666;fill-opacity:1;stroke:none" />
    <path
       inkscape:export-ydpi="90"
       inkscape:export-xdpi="90"
       inkscape:export-filename="/users/pachopepe/Documents/Proyectos/Yesod/yesod1.png"
       sodipodi:nodetypes="ccccccccccccccc"
       inkscape:connector-curvature="0"
       id="path3478"
       d="m 487.33658,147.95529 -7.34062,12.96 -25.79257,0 -11.52164,6.50321 -23.3096,36.91291 5.59357,6.02265 23.18711,-0.18065 10.27688,0 39.18375,-62.21812 z m -38.34843,25.00875 22.78125,0 -16.605,25.18593 -22.78125,0 z"
       style="fill:#666666;fill-opacity:1;stroke:none" />
    <path
       style="fill:#aaaaaa;fill-opacity:1"
       d="m 210.70376,221.57036 c 1.59675,-2.34097 20.68423,-29.7936 26.35706,-37.90813 1.13259,-1.62007 1.12834,-1.63429 -1.78297,-5.96883 -1.60504,-2.38969 -7.8038,-11.76666 -13.77502,-20.83771 l -10.85676,-16.49281 10.87731,0 10.8773,0 13.60996,20.63731 c 7.48548,11.35053 13.60997,20.83879 13.60997,21.08504 0,0.24625 -6.4322,9.90206 -14.29378,21.45735 l -14.29377,21.00963 -11.18247,0.001 -11.18247,0.001 2.03564,-2.98442 z"
       id="path3166"
       inkscape:connector-curvature="0" />
    <path
       style="fill:#aaaaaa;fill-opacity:1"
       d="m 210.70376,221.57036 c 1.59675,-2.34097 20.68423,-29.7936 26.35706,-37.90813 1.13259,-1.62007 1.12834,-1.63429 -1.78297,-5.96883 -1.60504,-2.38969 -7.8038,-11.76666 -13.77502,-20.83771 l -10.85676,-16.49281 10.87731,0 10.8773,0 13.60996,20.63731 c 7.48548,11.35053 13.60997,20.83879 13.60997,21.08504 0,0.24625 -6.4322,9.90206 -14.29378,21.45735 l -14.29377,21.00963 -11.18247,0.001 -11.18247,0.001 2.03564,-2.98442 z"
       id="path3168"
       inkscape:connector-curvature="0" />
    <path
       style="fill:#aaaaaa;fill-opacity:1"
       d="m 210.70376,221.57036 c 1.59675,-2.34097 20.68423,-29.7936 26.35706,-37.90813 1.13259,-1.62007 1.12834,-1.63429 -1.78297,-5.96883 -1.60504,-2.38969 -7.8038,-11.76666 -13.77502,-20.83771 l -10.85676,-16.49281 10.87731,0 10.8773,0 13.60996,20.63731 c 7.48548,11.35053 13.60997,20.83879 13.60997,21.08504 0,0.24625 -6.4322,9.90206 -14.29378,21.45735 l -14.29377,21.00963 -11.18247,0.001 -11.18247,0.001 2.03564,-2.98442 z"
       id="path3170"
       inkscape:connector-curvature="0" />
    <path
       style="fill:#aaaaaa;fill-opacity:1"
       d="m 210.70376,221.57036 c 1.59675,-2.34097 20.68423,-29.7936 26.35706,-37.90813 1.13259,-1.62007 1.12834,-1.63429 -1.78297,-5.96883 -1.60504,-2.38969 -7.8038,-11.76666 -13.77502,-20.83771 l -10.85676,-16.49281 10.87731,0 10.8773,0 13.60996,20.63731 c 7.48548,11.35053 13.60997,20.83879 13.60997,21.08504 0,0.24625 -6.4322,9.90206 -14.29378,21.45735 l -14.29377,21.00963 -11.18247,0.001 -11.18247,0.001 2.03564,-2.98442 z"
       id="path3172"
       inkscape:connector-curvature="0" />
    <path
       style="fill:#aaaaaa;fill-opacity:1"
       d="m 224.43593,111.08428 c 0,-0.2073 6.31289,-9.46684 14.02864,-20.576748 7.71575,-11.109917 14.2215,-20.530907 14.45722,-20.935535 0.24249,-0.416241 -5.43974,-9.631734 -13.08619,-21.223318 -7.43312,-11.268197 -13.51477,-20.620777 -13.51477,-20.78351 0,-0.162734 4.8119,-0.29588 10.69311,-0.29588 l 10.69311,0 13.52332,20.500583 c 7.43783,11.27532 13.58187,20.717712 13.65343,20.983092 0.0715,0.26538 -6.33027,9.983295 -14.22629,21.595364 l -14.35639,21.112862 -10.93259,0 c -6.01293,0 -10.9326,-0.16961 -10.9326,-0.37691 z"
       id="path3174"
       inkscape:connector-curvature="0" />
    <path
       style="fill:#666666;fill-opacity:1"
       d="m 238.40766,223.14111 c 0.26107,-0.43196 6.68143,-9.6915 14.26749,-20.57676 7.58605,-10.88525 13.79778,-20.10792 13.80383,-20.4948 0.006,-0.38688 -5.69079,-9.76373 -12.65965,-20.83743 -6.96887,-11.07371 -12.67068,-20.30662 -12.67068,-20.51758 0,-0.21096 4.44995,-0.30571 9.88877,-0.21054 l 9.88876,0.17303 7.66272,12.55234 c 4.2145,6.90378 7.91164,12.63531 8.21588,12.73672 0.30423,0.10141 4.58416,-5.61783 9.51095,-12.70942 l 8.95781,-12.89379 9.0959,0 c 7.68848,0 9.01815,0.13853 8.59345,0.89528 -0.27634,0.49241 -12.37727,19.287 -26.89095,41.76577 l -26.3885,40.87049 -10.87522,0.016 c -8.5377,0.0126 -10.77319,-0.15277 -10.40056,-0.76933 z"
       id="path3176"
       inkscape:connector-curvature="0" />
    <path
       sodipodi:nodetypes="ccccccc"
       inkscape:connector-curvature="0"
       id="path4400-8"
       d="m 104.07179,-90.907466 21.41883,0 27.53849,41.61372 -28.76243,42.2256801 -22.03079,0 29.37439,-42.2256801 z"
       style="fill:#aaaaaa;stroke:#666666;stroke-width:1px;stroke-linecap:butt;stroke-linejoin:miter;stroke-opacity:1;fill-opacity:1"
       inkscape:export-filename="/users/pachopepe/Documents/Proyectos/Yesod/yesod1.png"
       inkscape:export-xdpi="90"
       inkscape:export-ydpi="90" />
    <path
       sodipodi:nodetypes="ccccccccc"
       inkscape:connector-curvature="0"
       id="path4402-2"
       d="m 207.38661,-91.144616 -54.35751,84.0765601 -22.64276,-10e-6 29.3744,-42.2256801 -26.2892,-41.85087 20.80686,0 15.88577,25.93974 18.35899,-26.31456 z"
       style="fill:#aaaaaa;fill-opacity:1;stroke:none"
       inkscape:export-filename="/users/pachopepe/Documents/Proyectos/Yesod/yesod1.png"
       inkscape:export-xdpi="90"
       inkscape:export-ydpi="90" />
    <path
       style="fill:#aaaaaa;fill-opacity:1"
       d="m 102.39336,-7.1693159 c 0,-0.2073 6.31289,-9.4668401 14.02864,-20.5767501 7.71575,-11.10992 14.2215,-20.53091 14.45722,-20.93554 0.24249,-0.41624 -5.43974,-9.631731 -13.08619,-21.223315 -7.43312,-11.268197 -13.51477,-20.620777 -13.51477,-20.78351 0,-0.162734 4.8119,-0.29588 10.69311,-0.29588 l 10.69311,0 13.52332,20.500583 c 7.43783,11.27532 13.58187,20.717712 13.65343,20.983092 0.0715,0.26538 -6.33027,9.98329 -14.22629,21.59536 l -14.35639,21.1128701 -10.93259,0 c -6.01293,0 -10.9326,-0.16961 -10.9326,-0.37691 z"
       id="path3174-5"
       inkscape:connector-curvature="0" />
    <flowRoot
       xml:space="preserve"
       id="flowRoot3202"
       style="font-size:40px;font-style:normal;font-weight:normal;line-height:125%;letter-spacing:0px;word-spacing:0px;fill:#000000;fill-opacity:1;stroke:none;font-family:Bitstream Vera Sans"><flowRegion
         id="flowRegion3204"><rect
           id="rect3206"
           width="185.34784"
           height="40.839352"
           x="106.18232"
           y="-48.415455" /></flowRegion><flowPara
         id="flowPara3208">YY</flowPara></flowRoot>    <rect
       style="fill:#aaaaaa;fill-opacity:1"
       id="rect3214"
       width="76.652321"
       height="24.14344"
       x="151.63712"
       y="-33.241096"
       transform="matrix(1,0,-0.55364428,0.83275327,0,0)"
       ry="10.970315" />
    <rect
       style="fill:#aaaaaa;fill-opacity:1"
       id="rect3214-1"
       width="76.652321"
       height="24.14344"
       x="151.26082"
       y="-61.156944"
       transform="matrix(1,0,-0.55364428,0.83275327,0,0)"
       ry="12.013876" />
    <rect
       style="fill:#aaaaaa;fill-opacity:1"
       id="rect3214-1-6"
       width="76.652321"
       height="24.14344"
       x="150.46678"
       y="-89.827278"
       transform="matrix(1,0,-0.55364428,0.83275327,0,0)"
       ry="12.07172" />
    <rect
       style="fill:#aaaaaa;fill-opacity:1"
       id="rect3214-1-9"
       width="58.976978"
       height="21.173477"
       x="340.53201"
       y="-65.134422"
       transform="matrix(1,0,-0.59840608,0.80119296,0,0)"
       ry="9.8926296"
       rx="3.1415026" />
    <rect
       style="fill:#aaaaaa;fill-opacity:1"
       id="rect3214-1-6-6"
       width="30.816481"
       height="20.729082"
       x="345.51492"
       y="-88.141632"
       transform="matrix(1,0,-0.52890814,0.84867908,0,0)"
       ry="9.7294168"
       rx="5.6546798" />
    <rect
       style="fill:#808080;fill-opacity:0.93927830000000001"
       id="rect3236"
       width="89.932976"
       height="18.449116"
       x="90.835785"
       y="289.60101"
       ry="8.0217133"
       transform="matrix(0.51458048,-0.85744208,0.97637474,0.21608418,0,0)" />
    <rect
       style="fill:#aaaaaa;fill-opacity:1"
       id="rect3238"
       width="3.7697864"
       height="0.62829775"
       x="420.95947"
       y="-77.94545"
       ry="0.31414887" />
    <path
       style="fill:#aaaaaa;fill-opacity:1"
       d="m 295.20761,-7.3247048 c 0,-0.2073 6.31289,-9.4668402 14.02864,-20.5767552 7.71575,-11.10992 14.2215,-20.530911 14.45722,-20.935541 0.24249,-0.41624 -5.43974,-9.631728 -13.08619,-21.223318 -7.43312,-11.26819 -13.51477,-20.62077 -13.51477,-20.78351 0,-0.16273 4.8119,-0.29588 10.69311,-0.29588 l 10.69311,0 13.52332,20.50059 c 7.43783,11.27532 13.58187,20.717708 13.65343,20.983088 0.0715,0.26538 -6.33027,9.983291 -14.22629,21.595361 l -14.35639,21.1128752 -10.93259,0 c -6.01293,0 -10.9326,-0.16961 -10.9326,-0.37691 z"
       id="path3174-5-0-9-5"
       inkscape:connector-curvature="0" />
    <path
       sodipodi:nodetypes="ccccccccc"
       inkscape:connector-curvature="0"
       id="path4402-2-4"
       d="m 381.66584,-74.558881 -36.13688,67.1125198 -22.64276,-10e-6 29.3744,-42.2256808 -8.69686,-29.913211 6.35601,2.513191 12.74428,11.48889 17.10239,-14.376901 c -3.59818,12.133722 0.89134,0.944594 1.89942,5.401202 z"
       style="fill:#808080;fill-opacity:0.94117647000000004;stroke:none"
       inkscape:export-filename="/users/pachopepe/Documents/Proyectos/Yesod/yesod1.png"
       inkscape:export-xdpi="90"
       inkscape:export-ydpi="90" />
  </g>
  <g
     inkscape:groupmode="layer"
     id="layer2"
     inkscape:label="Front Text">
    <text
       xml:space="preserve"
       style="font-size:48px;font-style:italic;font-variant:normal;font-weight:bold;font-stretch:normal;text-align:start;line-height:125%;letter-spacing:0px;word-spacing:0px;writing-mode:lr-tb;text-anchor:start;fill:#000000;fill-opacity:1;stroke:none;font-family:Ubuntu;-inkscape-font-specification:Ubuntu Bold Italic"
       x="103.81921"
       y="-6.3195062"
       id="text3210"
       sodipodi:linespacing="125%"><tspan
         sodipodi:role="line"
         id="tspan3212"
         x="103.81921"
         y="-6.3195062"
         style="font-size:40px;font-style:italic;font-variant:normal;font-weight:bold;font-stretch:normal;text-align:start;line-height:125%;writing-mode:lr-tb;text-anchor:start;font-family:Arial Black;-inkscape-font-specification:'Arial Black, Bold Italic'">Yesod</tspan></text>
    <text
       xml:space="preserve"
       style="font-size:40px;font-style:italic;font-variant:normal;font-weight:bold;font-stretch:normal;text-align:start;line-height:125%;letter-spacing:0px;word-spacing:0px;writing-mode:lr;text-anchor:start;fill:#808080;fill-opacity:0.94117647000000004;stroke:none;font-family:Ubuntu;-inkscape-font-specification:Ubuntu Bold Italic"
       x="355.82904"
       y="-8.832696"
       id="text3210-3"
       sodipodi:linespacing="125%"><tspan
         sodipodi:role="line"
         id="tspan3212-4"
         x="355.82904"
         y="-8.832696"
         style="font-size:40px;font-style:italic;font-variant:normal;font-weight:bold;font-stretch:normal;text-align:start;line-height:125%;writing-mode:lr;text-anchor:start;fill:#808080;fill-opacity:0.94117647000000004;font-family:Ubuntu;-inkscape-font-specification:Ubuntu Bold Italic">esod</tspan></text>
    <path
       sodipodi:nodetypes="ccccccc"
       inkscape:connector-curvature="0"
       id="path4400-8-9-3"
       d="m 21.726802,26.529938 21.41883,0 27.53849,41.613718 -28.76243,42.225684 -22.03079,0 29.37439,-42.225684 z"
       style="fill:#aaaaaa;fill-opacity:1;stroke:#666666;stroke-width:1px;stroke-linecap:butt;stroke-linejoin:miter;stroke-opacity:1"
       inkscape:export-filename="/users/pachopepe/Documents/Proyectos/Yesod/yesod1.png"
       inkscape:export-xdpi="90"
       inkscape:export-ydpi="90" />
    <path
       sodipodi:nodetypes="ccccccccc"
       inkscape:connector-curvature="0"
       id="path4402-2-5-4"
       d="m 125.04162,26.292788 -54.357508,84.076562 -22.64276,-1e-5 29.3744,-42.225684 -26.2892,-41.850868 20.80686,0 15.88577,25.93974 18.358988,-26.31456 z"
       style="fill:#aaaaaa;fill-opacity:1;stroke:none"
       inkscape:export-filename="/users/pachopepe/Documents/Proyectos/Yesod/yesod1.png"
       inkscape:export-xdpi="90"
       inkscape:export-ydpi="90" />
    <path
       style="fill:#aaaaaa;fill-opacity:1"
       d="m 20.048372,110.26809 c 0,-0.2073 6.31289,-9.46684 14.02864,-20.576753 7.71575,-11.10992 14.2215,-20.530911 14.45722,-20.935541 0.24249,-0.41624 -5.43974,-9.631728 -13.08619,-21.223318 -7.43312,-11.26819 -13.51477,-20.62077 -13.51477,-20.78351 0,-0.16273 4.8119,-0.29588 10.69311,-0.29588 l 10.69311,0 13.52332,20.50059 c 7.43783,11.27532 13.58187,20.717708 13.65343,20.983088 0.0715,0.26538 -6.33027,9.983291 -14.22629,21.595361 l -14.35639,21.112873 -10.93259,0 c -6.01293,0 -10.9326,-0.16961 -10.9326,-0.37691 z"
       id="path3174-5-0-9"
       inkscape:connector-curvature="0" />
    <rect
       style="fill:#aaaaaa;fill-opacity:1"
       id="rect3214-8-4"
       width="76.652321"
       height="23.215837"
       x="141.14983"
       y="103.64092"
       transform="matrix(1,0,-0.49999826,0.86602641,0,0)"
       ry="11.607919" />
    <rect
       style="fill:#aaaaaa;fill-opacity:1"
       id="rect3214-1-9-9"
       width="51.262371"
       height="20.225334"
       x="148.10652"
       y="82.291245"
       transform="matrix(1,0,-0.54451351,0.83875207,0,0)"
       ry="9.4496403" />
    <rect
       style="fill:#aaaaaa;fill-opacity:1"
       id="rect3214-1-6-6-6"
       width="30.816481"
       height="20.729082"
       x="145.87091"
       y="54.676994"
       transform="matrix(1,0,-0.52890814,0.84867908,0,0)"
       ry="9.7294168" />
    <text
       xml:space="preserve"
       style="font-size:48px;font-style:italic;font-variant:normal;font-weight:bold;font-stretch:normal;text-align:start;line-height:125%;letter-spacing:0px;word-spacing:0px;writing-mode:lr-tb;text-anchor:start;fill:#000000;fill-opacity:1;stroke:none;font-family:Ubuntu;-inkscape-font-specification:Ubuntu Bold Italic"
       x="12.04976"
       y="139.92017"
       id="text3210-3-0"
       sodipodi:linespacing="125%"><tspan
         sodipodi:role="line"
         id="tspan3212-4-4"
         x="12.04976"
         y="139.92017"
         style="font-size:40px;font-style:italic;font-variant:normal;font-weight:bold;font-stretch:normal;text-align:start;line-height:125%;writing-mode:lr-tb;text-anchor:start;font-family:Arial Black;-inkscape-font-specification:'Arial Black, Bold Italic'">Yesod</tspan></text>
    <rect
       style="fill:#ffffff;fill-opacity:0"
       id="rect3403"
       width="55.918499"
       height="10.681062"
       x="-20.733826"
       y="-74.175659"
       ry="5.3405309" />
    <rect
       style="fill:#ffffff;fill-opacity:0"
       id="rect3405"
       width="30.158291"
       height="10.052764"
       x="-26.388506"
       y="-86.741615"
       ry="5.026382" />
    <rect
       style="fill:#ffffff;fill-opacity:0"
       id="rect3407"
       width="63.458073"
       height="21.990421"
       x="-40.839352"
       y="-51.556946"
       ry="5.026382" />
    <rect
       style="fill:#808080;fill-opacity:0.95209901"
       id="rect3423"
       width="46.75029"
       height="18.33848"
       x="14.484574"
       y="-355.67465"
       ry="6.4501204"
       transform="matrix(0.49371238,0.86962526,-0.95421814,0.2991116,0,0)" />
  </g>
</svg>
